<svg width="100" height="100" viewBox="0 0 100 100" fill="none" xmlns="http://www.w3.org/2000/svg">
<path fill-rule="evenodd" clip-rule="evenodd" d="M49.803 77.3026L70.3863 41.6513C79.5344 25.8063 68.0993 5.99999 49.803 5.99999C31.5068 6 20.0716 25.8062 29.2197 41.6513L49.803 77.3026ZM49.803 73.6359L68.7986 40.7346C77.2411 26.1118 66.688 7.83333 49.803 7.83333C32.9181 7.83333 22.365 26.1118 30.8074 40.7346L49.803 73.6359Z" fill="black"/>
<path fill-rule="evenodd" clip-rule="evenodd" d="M49.803 19.0916C54.3174 19.0916 57.9771 22.7513 57.9771 27.2657C57.9771 31.7801 54.3174 35.4397 49.803 35.4397C45.2886 35.4397 41.629 31.7801 41.629 27.2657C41.629 22.7513 45.2886 19.0916 49.803 19.0916ZM49.803 17.2583C55.33 17.2583 59.8104 21.7388 59.8104 27.2657C59.8104 32.7926 55.33 37.2731 49.803 37.2731C44.2761 37.2731 39.7957 32.7926 39.7957 27.2657C39.7957 21.7388 44.2761 17.2583 49.803 17.2583Z" fill="black"/>
</svg>
