<svg width="440" height="280" viewBox="0 0 440 280" fill="none" xmlns="http://www.w3.org/2000/svg">
<path fill-rule="evenodd" clip-rule="evenodd" d="M0 50C0 22.3858 22.3858 0 50 0H390C417.614 0 440 22.3858 440 50V230C440 257.614 417.614 280 390 280H50C22.3858 280 0 257.614 0 230V50ZM50 10C27.9086 10 10 27.9086 10 50V57.503L12.855 50.3568L205.317 127.249C214.761 131.023 225.288 131.057 234.756 127.345L430 50.8056V50C430 27.9086 412.091 10 390 10H50ZM430 61.5465L238.406 136.655C226.57 141.295 213.412 141.252 201.607 136.536L10 59.9848V230C10 252.091 27.9086 270 50 270H390C412.091 270 430 252.091 430 230V61.5465Z" fill="black"/>
</svg>
