<?xml version="1.0" standalone="no"?>
<!DOCTYPE svg PUBLIC "-//W3C//DTD SVG 20010904//EN"
 "http://www.w3.org/TR/2001/REC-SVG-20010904/DTD/svg10.dtd">
<svg version="1.0" xmlns="http://www.w3.org/2000/svg"
 width="842.000000pt" height="842.000000pt" viewBox="0 0 842.000000 842.000000"
 preserveAspectRatio="xMidYMid meet">
<metadata>
Created by potrace 1.14, written by Peter Selinger 2001-2017
</metadata>
<g transform="translate(0.000000,842.000000) scale(0.100000,-0.100000)"
fill="#000000" stroke="none">
<path d="M3787 8413 c-2 -1 -59 -4 -127 -7 -69 -3 -125 -6 -125 -7 0 0 -18 -2
-40 -3 -22 -1 -58 -8 -80 -16 -117 -38 -146 -111 -109 -275 8 -39 18 -81 20
-95 3 -14 12 -54 21 -90 8 -36 17 -74 19 -85 4 -20 28 -129 45 -200 5 -22 12
-51 14 -65 3 -14 8 -32 12 -40 3 -8 9 -32 14 -52 5 -21 14 -57 19 -80 6 -24
13 -54 16 -68 3 -14 10 -43 16 -65 6 -22 12 -47 14 -55 1 -8 12 -55 23 -105
12 -49 24 -101 27 -115 3 -14 16 -70 29 -125 14 -55 26 -112 29 -125 2 -14 5
-25 7 -25 1 0 3 -9 4 -20 2 -11 13 -58 25 -105 11 -47 23 -96 26 -110 3 -14
10 -43 16 -65 6 -22 12 -44 14 -50 1 -5 7 -30 15 -55 14 -50 17 -62 23 -87 3
-10 5 -18 6 -18 1 0 3 -8 6 -17 2 -10 6 -26 8 -35 3 -10 5 -18 6 -18 1 0 3
-11 6 -24 2 -14 9 -30 14 -36 6 -7 11 -24 12 -39 1 -14 5 -26 9 -26 4 0 9 -13
12 -29 3 -16 22 -71 42 -122 37 -96 44 -112 89 -211 14 -31 26 -61 26 -65 0
-5 6 -15 13 -21 6 -7 12 -16 13 -20 1 -14 58 -128 72 -144 8 -10 12 -18 8 -18
-3 0 6 -19 20 -42 73 -119 79 -124 104 -85 33 51 148 278 155 307 1 3 18 40
38 83 20 42 37 79 37 81 0 2 11 29 25 60 14 31 25 58 24 61 0 3 7 18 15 33 26
46 106 234 106 248 0 8 4 14 8 14 5 0 9 6 9 13 0 6 11 37 25 67 52 113 243
588 246 610 0 3 14 35 31 73 17 37 28 67 24 67 -3 0 -1 6 5 13 6 6 11 17 12
22 1 6 6 19 10 30 53 142 196 568 204 610 3 11 19 74 36 140 37 139 34 126 45
190 10 56 12 64 14 68 3 3 9 60 16 154 11 144 -31 179 -250 209 -44 6 -1263
13 -1268 7z"/>
<path d="M100 5318 c-33 -31 -66 -127 -77 -221 -17 -153 -6 -1536 14 -1622 2
-11 6 -31 9 -44 13 -65 52 -107 116 -125 49 -14 66 -13 163 9 39 8 84 18 100
21 42 9 45 9 90 22 22 6 54 13 70 15 17 3 62 13 100 22 39 9 77 18 85 20 8 2
53 13 100 25 47 12 92 24 100 26 52 13 107 26 120 29 8 2 44 11 79 20 35 9 77
18 92 20 16 2 32 6 36 8 8 5 404 99 553 132 8 2 15 4 15 5 0 1 11 3 25 6 14 2
48 11 75 19 28 8 59 16 70 18 11 2 27 6 35 9 8 3 67 20 130 37 63 18 124 36
135 41 11 5 45 16 75 26 30 9 60 19 65 23 6 3 16 6 23 7 8 2 21 6 30 10 9 4
19 8 22 9 3 1 13 5 23 8 9 4 25 10 35 14 9 3 19 7 22 8 72 26 378 175 483 235
122 71 124 68 -108 185 -71 36 -135 65 -141 65 -6 0 -17 7 -24 15 -7 9 -15 13
-17 11 -3 -3 -21 4 -41 14 -21 10 -59 28 -87 40 -27 12 -72 32 -100 45 -27 12
-84 37 -125 54 -41 18 -93 41 -115 51 -22 11 -69 31 -105 45 -36 15 -78 33
-95 40 -99 45 -215 93 -215 88 0 -2 -16 5 -35 17 -19 12 -35 18 -35 15 0 -4
-6 -2 -13 4 -8 6 -16 9 -19 6 -3 -3 -11 1 -18 10 -7 8 -18 15 -24 15 -9 0
-259 95 -341 130 -11 5 -69 26 -130 48 -60 22 -137 50 -170 62 -33 12 -64 23
-70 25 -5 1 -17 5 -25 8 -77 29 -394 124 -475 143 -32 7 -63 14 -92 19 -16 3
-44 10 -63 14 -19 5 -42 9 -50 9 -8 0 -35 3 -60 7 -25 4 -78 8 -118 9 -68 1
-76 -1 -102 -26z"/>
<path d="M8130 5159 c-19 -4 -48 -11 -65 -13 -16 -3 -95 -21 -175 -41 -80 -19
-156 -37 -170 -40 -43 -8 -63 -13 -140 -34 -41 -11 -113 -30 -160 -42 -47 -11
-92 -23 -100 -26 -8 -3 -24 -7 -35 -9 -17 -2 -76 -16 -165 -39 -62 -15 -109
-26 -130 -31 -14 -2 -33 -7 -42 -10 -16 -5 -40 -10 -87 -20 -14 -3 -28 -7 -31
-9 -4 -2 -21 -7 -38 -10 -45 -8 -375 -91 -457 -115 -38 -12 -77 -23 -86 -25
-48 -11 -337 -113 -425 -151 -204 -87 -461 -220 -519 -269 l-30 -25 30 -25
c27 -23 264 -145 425 -218 157 -71 366 -164 505 -224 83 -36 166 -72 185 -81
19 -9 37 -17 40 -18 3 0 23 -8 45 -18 22 -10 63 -26 90 -37 28 -11 64 -26 80
-34 67 -30 210 -85 222 -85 7 0 13 -4 13 -10 0 -5 5 -10 12 -10 12 0 176 -60
235 -86 17 -8 36 -14 42 -14 6 0 19 -4 29 -10 20 -11 204 -75 277 -96 28 -8
57 -18 65 -21 8 -3 20 -7 25 -9 101 -30 168 -49 205 -59 8 -2 15 -4 15 -5 0
-1 11 -4 25 -7 39 -7 55 -11 55 -13 0 -1 9 -3 20 -4 11 -2 34 -6 50 -10 95
-21 128 -25 238 -30 85 -4 90 -3 117 22 31 30 58 94 66 156 3 23 9 57 13 77 8
37 6 1302 -3 1469 -9 181 -32 254 -93 296 -34 23 -113 29 -173 13z"/>
<path d="M4160 3162 c-32 -48 -68 -123 -170 -347 -68 -150 -170 -391 -170
-402 0 -7 -4 -13 -10 -13 -5 0 -9 -3 -8 -7 1 -5 -5 -24 -13 -43 -9 -19 -44
-105 -79 -190 -34 -85 -69 -168 -76 -185 -18 -37 -205 -516 -208 -530 -1 -9
-17 -52 -36 -100 -4 -11 -18 -49 -30 -85 -11 -36 -25 -74 -30 -85 -9 -19 -98
-294 -105 -325 -2 -8 -11 -40 -20 -70 -9 -30 -17 -62 -19 -70 -2 -8 -14 -53
-26 -100 -12 -47 -24 -96 -26 -110 -3 -14 -9 -49 -15 -78 -16 -78 -19 -108
-24 -204 -3 -82 -2 -90 21 -117 28 -33 110 -68 182 -77 26 -3 61 -7 77 -9 17
-2 120 -4 230 -5 517 -2 630 -2 765 -1 135 1 385 8 385 11 0 0 36 3 81 5 44 2
100 11 125 20 24 8 48 17 54 18 15 3 65 68 71 93 7 28 -1 125 -15 174 -5 19
-12 51 -15 70 -3 19 -11 55 -19 80 -7 25 -13 55 -12 68 1 12 -2 22 -5 22 -4 0
-10 21 -14 48 -3 26 -24 117 -46 202 -22 85 -41 164 -43 176 -4 23 -43 191
-57 244 -9 33 -35 149 -45 198 -3 12 -7 31 -10 42 -12 48 -16 67 -21 90 -3 14
-16 70 -28 125 -13 55 -29 125 -36 155 -11 51 -15 67 -19 80 -3 9 -22 85 -27
110 -2 14 -7 32 -11 40 -3 8 -8 24 -10 35 -6 29 -9 38 -16 55 -4 8 -8 24 -10
35 -2 11 -6 27 -9 35 -3 8 -31 94 -62 190 -32 96 -66 193 -76 215 -11 22 -19
43 -20 47 -1 19 -182 392 -192 396 -4 2 -8 9 -8 16 0 16 -57 96 -68 96 -4 0
-18 -17 -32 -38z"/>
</g>
</svg>
